<?xml version="1.0" encoding="utf-8"?>
<!-- Generator: Adobe Illustrator 26.0.0, SVG Export Plug-In . SVG Version: 6.00 Build 0)  -->
<svg version="1.1" id="Capa_1" xmlns="http://www.w3.org/2000/svg" xmlns:xlink="http://www.w3.org/1999/xlink" x="0px" y="0px"
	 viewBox="0 0 300 300" style="enable-background:new 0 0 300 300;" xml:space="preserve">
<style type="text/css">
	.st0{fill:#FFFFFF;stroke:#0A7D99;stroke-width:2;stroke-miterlimit:10;}
	.st1{fill:#0A7D99;}
</style>
<path class="st0" d="M67.37,287.67L11.73,68.38c-1.97-7.77,2.73-15.66,10.49-17.63L215,1.84c7.77-1.97,15.66,2.73,17.63,10.49
	l55.64,219.29c1.97,7.77-2.73,15.66-10.49,17.63L85,298.16C77.23,300.13,69.34,295.43,67.37,287.67z"/>
<g>
	<path class="st1" d="M135.36,60.15c13.89,0,25.2,11.3,25.2,25.2c0,1.49,1.21,2.69,2.69,2.69c1.49,0,2.69-1.21,2.69-2.69
		c0-16.86-13.72-30.58-30.58-30.58c-1.49,0-2.69,1.21-2.69,2.69C132.67,58.94,133.88,60.15,135.36,60.15z"/>
	<path class="st1" d="M87.36,297.8l187.68-47.62c9.17-2.33,14.72-11.65,12.4-20.82l-4.13-16.28
		c-12.48-13.88-28.24-21.81-47.85-23.59c-16.25-1.47-20.52-6.89-19.22-23.29c1.16-14.7,5.81-29.02,4.97-43.99
		c-0.15-2.6-0.44-6.73,3.46-6.47c2.09,0.14,3.96,3.42,7.32,6.58c0-5.53,1.08-9.72-0.17-13.04c-10.24-27.18-9.62-56.27-15.4-84.16
		c-1.54-7.42-4.44-14.58-8.39-21.28L57.61,42.01c-1.88,12.98-0.59,26.63,2.9,40.67c3.76,15.11-0.07,27.28-9.4,38.47
		c-4.87,5.84-10.25,11.34-15.9,16.44c-1.77,1.6-3.42,3.24-4.93,4.95L66.54,285.4C68.86,294.57,78.19,300.12,87.36,297.8z
		 M98.34,85.34c0-20.04,16.25-36.29,36.29-36.29h0.73c20.04,0,36.29,16.25,36.29,36.29v64.13c0,20.04-16.25,36.29-36.29,36.29h-0.73
		c-20.04,0-36.29-16.25-36.29-36.29V85.34z M78.27,142.74c3.72,0,6.73,3.01,6.73,6.73c0,13.26,5.16,25.72,14.54,35.09
		c9.37,9.37,21.84,14.54,35.09,14.54h0.73c13.26,0,25.72-5.16,35.09-14.54c9.37-9.37,14.54-21.84,14.54-35.09
		c0-3.72,3.01-6.73,6.73-6.73c3.72,0,6.73,3.01,6.73,6.73c0,16.85-6.56,32.7-18.48,44.61c-10.4,10.4-23.8,16.72-38.25,18.16l0,46.03
		h29.92c3.72,0,6.73,3.01,6.73,6.73c0,3.72-3.01,6.73-6.73,6.73H135H98.34c-3.72,0-6.73-3.01-6.73-6.73s3.01-6.73,6.73-6.73h29.92
		v-46.03c-14.45-1.44-27.84-7.76-38.25-18.16c-11.92-11.92-18.48-27.76-18.48-44.61C71.54,145.76,74.55,142.74,78.27,142.74z"/>
</g>
</svg>
