<?xml version="1.0" encoding="utf-8"?>
<!-- Generator: Adobe Illustrator 26.0.0, SVG Export Plug-In . SVG Version: 6.00 Build 0)  -->
<svg version="1.1" id="Layer_1" xmlns="http://www.w3.org/2000/svg" xmlns:xlink="http://www.w3.org/1999/xlink" x="0px" y="0px"
	 viewBox="0 0 500 500" style="enable-background:new 0 0 500 500;" xml:space="preserve">
<style type="text/css">
	.st0{fill:#3173B9;}
</style>
<title>Layer 1</title>
<path id="path5" class="st0" d="M224.66,99.43c71.03-10.87,142.19-21.11,213.36-30.98c0.05,62.37,0,124.69,0.05,187.06
	c-71.12,0.27-142.24,1.35-213.4,1.58C224.61,204.51,224.61,151.97,224.66,99.43L224.66,99.43z"/>
<path id="path7" class="st0" d="M44.27,124.59c53.49-8.25,107.2-15.38,160.91-22.1c0.05,51.73,0.05,103.41,0.09,155.14
	c-53.67-0.05-107.33,0.77-161,0.63V124.59L44.27,124.59z"/>
<path id="path29" class="st0" d="M44.27,274.54c53.62-0.18,107.24,0.68,160.86,0.59c0,51.86,0.14,103.72,0.05,155.59
	c-53.58-7.94-107.24-14.88-160.91-22.14V274.54z"/>
<path id="path31" class="st0" d="M224.34,276.62c71.25,0,142.46,0,213.67,0c0.09,62.19,0,124.38,0,186.61
	c-71.03-10.64-142.19-20.52-213.36-30.17C224.57,380.93,224.43,328.8,224.34,276.62z"/>
</svg>
